<mxfile host="app.diagrams.net" agent="Mozilla/5.0 (Windows NT 10.0; Win64; x64) AppleWebKit/537.36 (KHTML, like Gecko) Chrome/140.0.0.0 Safari/537.36" version="28.2.4">
  <diagram name="Page-1" id="w3rpWTdqNMNPqcqfWUDb">
    <mxGraphModel dx="714" dy="421" grid="1" gridSize="10" guides="1" tooltips="1" connect="1" arrows="1" fold="1" page="1" pageScale="1" pageWidth="850" pageHeight="1100" math="0" shadow="0">
      <root>
        <mxCell id="0" />
        <mxCell id="1" parent="0" />
        <mxCell id="jZ8ssXjZZB8B8TOYggtn-3" value="" style="edgeStyle=orthogonalEdgeStyle;rounded=0;orthogonalLoop=1;jettySize=auto;html=1;" parent="1" source="jZ8ssXjZZB8B8TOYggtn-1" target="jZ8ssXjZZB8B8TOYggtn-2" edge="1">
          <mxGeometry relative="1" as="geometry">
            <Array as="points">
              <mxPoint x="293" y="120" />
              <mxPoint x="293" y="120" />
            </Array>
          </mxGeometry>
        </mxCell>
        <mxCell id="jZ8ssXjZZB8B8TOYggtn-1" value="Start" style="ellipse;whiteSpace=wrap;html=1;aspect=fixed;" parent="1" vertex="1">
          <mxGeometry x="260" y="10" width="70" height="70" as="geometry" />
        </mxCell>
        <mxCell id="jZ8ssXjZZB8B8TOYggtn-5" value="" style="edgeStyle=orthogonalEdgeStyle;rounded=0;orthogonalLoop=1;jettySize=auto;html=1;" parent="1" source="jZ8ssXjZZB8B8TOYggtn-2" target="jZ8ssXjZZB8B8TOYggtn-4" edge="1">
          <mxGeometry relative="1" as="geometry" />
        </mxCell>
        <mxCell id="jZ8ssXjZZB8B8TOYggtn-2" value="Sign up" style="rounded=1;whiteSpace=wrap;html=1;" parent="1" vertex="1">
          <mxGeometry x="237.5" y="130" width="115" height="65" as="geometry" />
        </mxCell>
        <mxCell id="jZ8ssXjZZB8B8TOYggtn-7" value="" style="edgeStyle=orthogonalEdgeStyle;rounded=0;orthogonalLoop=1;jettySize=auto;html=1;" parent="1" source="jZ8ssXjZZB8B8TOYggtn-4" edge="1">
          <mxGeometry relative="1" as="geometry">
            <mxPoint x="295" y="385" as="targetPoint" />
          </mxGeometry>
        </mxCell>
        <mxCell id="jZ8ssXjZZB8B8TOYggtn-4" value="&amp;nbsp;Enter email and phone number" style="rounded=1;whiteSpace=wrap;html=1;" parent="1" vertex="1">
          <mxGeometry x="235" y="230" width="120" height="70" as="geometry" />
        </mxCell>
        <mxCell id="jZ8ssXjZZB8B8TOYggtn-9" value="" style="edgeStyle=orthogonalEdgeStyle;rounded=0;orthogonalLoop=1;jettySize=auto;html=1;" parent="1" edge="1">
          <mxGeometry relative="1" as="geometry">
            <mxPoint x="295" y="445" as="sourcePoint" />
            <mxPoint x="295" y="525" as="targetPoint" />
          </mxGeometry>
        </mxCell>
        <mxCell id="jZ8ssXjZZB8B8TOYggtn-15" value="" style="edgeStyle=orthogonalEdgeStyle;rounded=0;orthogonalLoop=1;jettySize=auto;html=1;" parent="1" source="jZ8ssXjZZB8B8TOYggtn-10" edge="1">
          <mxGeometry relative="1" as="geometry">
            <mxPoint x="432.5" y="585" as="targetPoint" />
          </mxGeometry>
        </mxCell>
        <mxCell id="jZ8ssXjZZB8B8TOYggtn-17" style="edgeStyle=orthogonalEdgeStyle;rounded=0;orthogonalLoop=1;jettySize=auto;html=1;exitX=0;exitY=0.5;exitDx=0;exitDy=0;entryX=0;entryY=0.5;entryDx=0;entryDy=0;" parent="1" source="jZ8ssXjZZB8B8TOYggtn-10" target="jZ8ssXjZZB8B8TOYggtn-2" edge="1">
          <mxGeometry relative="1" as="geometry" />
        </mxCell>
        <mxCell id="jZ8ssXjZZB8B8TOYggtn-10" value="Policy about the app&amp;nbsp;" style="rhombus;whiteSpace=wrap;html=1;" parent="1" vertex="1">
          <mxGeometry x="240" y="520" width="115" height="130" as="geometry" />
        </mxCell>
        <mxCell id="jZ8ssXjZZB8B8TOYggtn-13" value="No" style="text;html=1;align=center;verticalAlign=middle;resizable=0;points=[];autosize=1;strokeColor=none;fillColor=none;" parent="1" vertex="1">
          <mxGeometry x="210" y="548" width="40" height="30" as="geometry" />
        </mxCell>
        <mxCell id="jZ8ssXjZZB8B8TOYggtn-19" value="" style="edgeStyle=orthogonalEdgeStyle;rounded=0;orthogonalLoop=1;jettySize=auto;html=1;" parent="1" target="jZ8ssXjZZB8B8TOYggtn-18" edge="1">
          <mxGeometry relative="1" as="geometry">
            <mxPoint x="492.5" y="555" as="sourcePoint" />
          </mxGeometry>
        </mxCell>
        <mxCell id="jZ8ssXjZZB8B8TOYggtn-16" value="Yes" style="text;html=1;align=center;verticalAlign=middle;resizable=0;points=[];autosize=1;strokeColor=none;fillColor=none;" parent="1" vertex="1">
          <mxGeometry x="350" y="558" width="40" height="30" as="geometry" />
        </mxCell>
        <mxCell id="JjZs2JPMtr70CUI7rQfA-2" value="" style="edgeStyle=orthogonalEdgeStyle;rounded=0;orthogonalLoop=1;jettySize=auto;html=1;" edge="1" parent="1" source="jZ8ssXjZZB8B8TOYggtn-18" target="JjZs2JPMtr70CUI7rQfA-1">
          <mxGeometry relative="1" as="geometry" />
        </mxCell>
        <mxCell id="jZ8ssXjZZB8B8TOYggtn-18" value="User bibliography (Description of him)" style="rounded=1;whiteSpace=wrap;html=1;" parent="1" vertex="1">
          <mxGeometry x="432.5" y="415" width="120" height="60" as="geometry" />
        </mxCell>
        <mxCell id="jZ8ssXjZZB8B8TOYggtn-22" value="User uploads picture" style="rounded=1;whiteSpace=wrap;html=1;" parent="1" vertex="1">
          <mxGeometry x="432.5" y="558" width="120" height="60" as="geometry" />
        </mxCell>
        <mxCell id="jZ8ssXjZZB8B8TOYggtn-25" value="User creates username and password(Make sure there is not repeteatly accounts created with the same username)" style="shape=process;whiteSpace=wrap;html=1;backgroundOutline=1;" parent="1" vertex="1">
          <mxGeometry x="237.5" y="320" width="120" height="130" as="geometry" />
        </mxCell>
        <mxCell id="JjZs2JPMtr70CUI7rQfA-1" value="Main Page" style="rounded=1;whiteSpace=wrap;html=1;" vertex="1" parent="1">
          <mxGeometry x="432.5" y="275" width="120" height="60" as="geometry" />
        </mxCell>
      </root>
    </mxGraphModel>
  </diagram>
</mxfile>
